<svg width="24" height="24" viewBox="0 0 24 24" fill="none" xmlns="http://www.w3.org/2000/svg">
<g clip-path="url(#clip0_642_7761)">
<path d="M12 24C18.6274 24 24 18.6274 24 12C24 5.37258 18.6274 0 12 0C5.37258 0 0 5.37258 0 12C0 18.6274 5.37258 24 12 24Z" fill="#F5F0FD"/>
<path d="M15.4692 14.5921L18.8648 12.6321C19.0461 12.5292 19.1539 12.3332 19.1539 12.1274V8.20743C19.1539 8.00163 19.0412 7.80563 18.8648 7.70273L15.4692 5.74275C15.2879 5.63985 15.0674 5.63985 14.8861 5.74275L11.4904 7.70273C11.3091 7.80563 11.2013 8.00163 11.2013 8.20743V15.2144L8.81992 16.5864L6.43854 15.2144V12.4655L8.81992 11.0886L10.3928 11.9951V10.1527L9.11392 9.41282C9.02572 9.36382 8.92282 9.33442 8.82482 9.33442C8.72682 9.33442 8.62392 9.36382 8.53572 9.41282L5.14005 11.3728C4.95875 11.4757 4.85095 11.6717 4.85095 11.8775V15.7975C4.85095 16.0033 4.96365 16.1993 5.14005 16.3022L8.53572 18.2621C8.71702 18.365 8.93752 18.365 9.11882 18.2621L12.5145 16.3022C12.6958 16.1993 12.8036 16.0033 12.8036 15.7975V8.79052L12.8477 8.76602L15.185 7.41363L17.5663 8.79052V11.5394L15.185 12.9114L13.617 12.0049V13.8473L14.8959 14.5823C15.0674 14.695 15.2928 14.695 15.4692 14.5921Z" fill="url(#paint0_linear_642_7761)"/>
</g>
<defs>
<linearGradient id="paint0_linear_642_7761" x1="6.06124" y1="16.3345" x2="18.3641" y2="7.36366" gradientUnits="userSpaceOnUse">
<stop stop-color="#A726C1"/>
<stop offset="0.88" stop-color="#803BDF"/>
<stop offset="1" stop-color="#7B3FE4"/>
</linearGradient>
<clipPath id="clip0_642_7761">
<rect width="24" height="24" fill="white"/>
</clipPath>
</defs>
</svg>
